<?xml version="1.0" encoding="utf-8"?>
<!-- Generator: Adobe Illustrator 25.0.0, SVG Export Plug-In . SVG Version: 6.00 Build 0)  -->
<svg version="1.1" id="Layer_1" xmlns="http://www.w3.org/2000/svg" xmlns:xlink="http://www.w3.org/1999/xlink" x="0px" y="0px"
	 viewBox="0 0 36 36" style="enable-background:new 0 0 36 36;" xml:space="preserve">
<style type="text/css">
	.st0{fill:url(#SVGID_1_);stroke:#F9FFFF;stroke-width:0.75;stroke-miterlimit:10;}
	.st1{fill:url(#SVGID_2_);stroke:#323335;stroke-width:0.75;stroke-miterlimit:10;}
</style>
<g>
	<linearGradient id="SVGID_1_" gradientUnits="userSpaceOnUse" x1="3.6548" y1="17.9834" x2="31.0175" y2="17.9834">
		<stop  offset="0" style="stop-color:#46B491"/>
		<stop  offset="0.2915" style="stop-color:#5ABA87"/>
		<stop  offset="0.8871" style="stop-color:#8EC96C"/>
		<stop  offset="1" style="stop-color:#99CC66"/>
	</linearGradient>
	<path class="st0" d="M31.02,17.32c0,5.2-1.44,9.19-4.33,12c-2.89,2.81-6.96,4.22-12.18,4.22H3.65V26.7
		c0.23-0.04,0.45-0.06,0.68-0.06h10.38c2.58,0,4.47-0.73,5.68-2.22c1.21-1.48,1.8-3.76,1.8-6.81c0-2.85-0.57-4.96-1.71-6.33
		c-1.13-1.38-2.86-2.07-5.19-2.07h-2.47v17.41h-8.5V2.42h10.88c5.04,0,8.94,1.28,11.68,3.84C29.65,8.82,31.02,12.5,31.02,17.32z"/>
</g>
<g>
	<linearGradient id="SVGID_2_" gradientUnits="userSpaceOnUse" x1="9.7601" y1="17.8909" x2="32.7591" y2="17.8909">
		<stop  offset="0" style="stop-color:#FF6666"/>
		<stop  offset="1" style="stop-color:#CC3333"/>
	</linearGradient>
	<path class="st1" d="M28.9,26.26c-1.28,0.37-2.6,0.56-3.96,0.56c-3.28,0-5.37-1.55-6.26-4.64H9.95c0.52,3.05,1.64,5.5,3.38,7.37
		c2.48,2.67,6.05,4,10.7,4c1.3,0,2.54-0.09,3.74-0.27c2.89-0.44,4.99-2.97,4.99-5.86V24.9C31.46,25.43,30.18,25.88,28.9,26.26z
		 M24.56,2.24c-3.05,0-5.7,0.65-7.96,1.93c-2.25,1.28-3.98,3.12-5.18,5.5c-0.87,1.72-1.42,3.64-1.66,5.75h8.6
		c0.25-1.62,0.74-2.96,1.48-4.03c1.11-1.6,2.66-2.41,4.63-2.41c1.31,0,2.53,0.18,3.67,0.55c1.14,0.36,4.62,2.22,4.62,2.22l0-3.94v0
		c0-2.56-1.83-4.81-4.38-5.25C27.12,2.35,25.85,2.24,24.56,2.24z"/>
</g>
</svg>
